<?xml version="1.0" encoding="UTF-8"?>
<svg width="154px" height="50px" viewBox="0 0 154 50" version="1.1" xmlns="http://www.w3.org/2000/svg" xmlns:xlink="http://www.w3.org/1999/xlink">
    <!-- Generator: Sketch 42 (36781) - http://www.bohemiancoding.com/sketch -->
    <title>logo</title>
    <desc>Created with Sketch.</desc>
    <defs>
        <polygon id="path-1" points="117.360642 22.6280187 117.360642 0.58805896 0.782319013 0.58805896 0.782319013 22.6280187"></polygon>
    </defs>
    <g id="1_00_Homepage" stroke="none" stroke-width="1" fill="none" fill-rule="evenodd">
        <g id="1_Homepage---1800" transform="translate(-277.000000, -18.000000)">
            <g id="logo" transform="translate(277.000000, 18.000000)">
                <g id="Group-3" transform="translate(35.878597, 21.608454)">
                    <mask id="mask-2" fill="white">
                        <use xlink:href="#path-1"></use>
                    </mask>
                    <g id="Clip-2"></g>
                    <path d="M89.8891875,17.0370832 C89.8751861,16.9171962 89.8681854,16.7920586 89.8673103,16.6529197 L89.8673103,16.6222916 C89.8681854,16.6082902 89.8690605,16.5942888 89.8690605,16.5811625 C89.8655601,15.8775919 90.1622148,14.8318621 90.2453482,14.5990887 L90.2619748,14.5535842 C90.5376275,13.7913828 90.6513889,13.4754761 91.0268015,12.9241708 C91.6551145,12.0027034 91.9368928,11.7051736 92.6124605,11.2518781 C93.2127707,10.8493378 94.0257272,10.7609539 94.0896086,10.7548283 L94.1044851,10.7530781 C94.2068704,10.7382016 94.3915139,10.7285757 94.5971595,10.7285757 C94.8395588,10.7285757 95.0592058,10.7425771 95.1580907,10.761829 L95.1764676,10.7644543 C95.2464746,10.7697048 95.8800381,10.8300858 96.4523455,11.3848915 C97.056156,11.9703252 97.3956901,12.7596543 97.4621968,13.7327519 C97.4954501,14.2271764 97.464822,14.6428431 97.3440599,15.3192859 C97.1270382,16.5216565 96.6912445,17.3398635 96.3648367,17.8141611 C95.8564108,18.55186 95.4276178,19.0550355 94.7432992,19.4409492 C94.4081405,19.6299681 93.7833279,19.9817534 92.747224,19.9817534 C92.4838226,19.9817534 92.2055447,19.9590011 91.9202661,19.9134966 C91.5894829,19.8618664 91.1361875,19.5713373 91.1055594,19.5512102 C91.0775566,19.5310832 90.9095398,19.3954446 90.8404078,19.3271878 C90.3066043,18.7977597 90.003824,18.0696867 89.8891875,17.0370832 L89.8891875,17.0370832 Z M101.065808,10.2516529 C99.259627,8.46997422 96.5617315,8.20394754 95.1143364,8.20394754 C94.342509,8.20394754 93.8323328,8.27657983 93.7763272,8.2853307 C90.2786015,8.80600791 87.7023432,10.1212648 86.1184344,12.1960978 C84.5021474,14.3138101 84.5494021,16.4140207 84.6027824,17.0082053 C84.8670589,19.9633766 86.6216099,21.7214278 89.8191804,22.2324791 L89.8183054,22.2438552 C89.8585594,22.251731 90.8080296,22.4223731 92.1862928,22.4223731 C93.8305826,22.4223731 95.3278578,22.1843492 96.6352388,21.7153022 C98.0196276,21.2375043 98.9384698,20.4954299 98.9769736,20.4648018 L98.9760985,20.4621766 C100.738525,19.189799 101.510353,17.7502797 101.542731,17.6890235 C102.645341,15.5958137 103.461798,12.6082641 101.08856,10.27353 L101.065808,10.2516529 Z M104.346512,8.95127247 C104.261628,8.99590195 104.090111,9.05715809 103.92822,9.08953633 C103.865214,9.10178756 103.807458,9.10878827 103.756703,9.11141353 C103.589561,9.11841423 103.456548,9.07816019 103.362038,8.99152651 C103.104762,8.75437773 103.185271,8.45072229 103.273654,8.30895807 C104.174995,6.97882471 103.965849,4.97574888 103.699822,4.00177623 L103.692821,3.98427447 L103.694572,3.97639868 L103.685821,3.87313833 C103.63069,3.63511446 103.603562,3.40671656 103.602687,3.19407024 C103.599187,2.13696426 104.245002,1.73004846 104.318509,1.68716916 C104.336011,1.67316776 104.385891,1.64516495 104.495277,1.5917846 L104.497902,1.58653407 L104.542532,1.56815723 C104.57316,1.555906 104.67642,1.51565196 104.763929,1.48502389 C104.816434,1.46752214 104.860188,1.45352073 104.886441,1.44914529 C104.903068,1.44389477 104.92932,1.43601898 104.958198,1.42989336 C104.97045,1.4272681 104.992327,1.42376775 105.030831,1.4202674 C105.337986,1.36426178 105.824535,1.34063441 106.337337,1.55503091 C106.37409,1.5699074 106.406469,1.58653407 106.436222,1.60228565 C106.682996,1.72829828 106.910519,1.90856636 107.106539,2.13521408 C107.280681,2.36448707 107.405819,2.63663935 107.481076,2.94992076 C107.581711,3.36996288 107.600088,3.86263728 107.539707,4.4244436 C107.539707,4.42969413 107.454824,5.11051239 107.296433,5.5664331 L107.141542,6.03548013 C107.003278,6.38814049 106.92277,6.56490821 106.740752,6.86681348 C106.724125,6.9009419 106.687372,6.95607243 106.633991,7.0365805 C106.605989,7.07858471 106.576236,7.12321419 106.552608,7.16084296 C106.397718,7.3866156 106.330336,7.48375034 106.111564,7.7147735 C106.07306,7.75940297 106.010054,7.82065911 105.943547,7.88541561 L105.87004,7.95629771 C105.744027,8.07968509 105.583011,8.21269842 105.391367,8.35358755 C104.935446,8.68874615 104.57316,8.86288861 104.349137,8.95039738 L104.346512,8.95127247 Z M117.360817,17.7581555 C117.380069,18.7356285 116.84539,19.8102362 115.928298,20.6319436 C115.09434,21.3818938 113.898095,21.952451 112.55921,22.2394798 C112.237178,22.3094868 111.071561,22.5370096 109.61629,22.5370096 C108.526806,22.5370096 107.536207,22.410997 106.667245,22.1607219 L106.672495,22.1729731 L106.405593,22.0907149 C105.632016,21.8448152 105.010704,21.514032 104.560908,21.1071162 C104.458523,21.0204826 104.37714,20.9390994 104.316759,20.8664671 C104.308883,20.855091 104.299257,20.8428397 104.288756,20.8288383 C103.67532,20.0998903 103.586061,19.2073008 104.040231,18.3759674 C104.32201,17.8596656 104.743802,17.4693765 105.225975,17.2759821 C106.059934,16.9434488 106.848388,16.9285723 107.108289,16.9233218 L107.162544,16.9224467 C107.194047,16.9206965 107.226426,16.9198214 107.261429,16.9198214 C107.603589,16.9198214 108.254654,17.0125807 108.51718,17.3599905 C108.617815,17.4930039 108.651944,17.6505197 108.616065,17.8176614 C108.595938,17.9147962 108.524181,18.0565604 108.301909,18.172072 C107.695473,18.4888537 107.27368,18.7627562 107.190547,19.0690369 C107.153793,19.209926 107.187047,19.3665667 107.293807,19.5477099 C107.506454,19.908246 108.233652,20.1208924 109.289008,20.1305183 L109.342388,20.1305183 C110.416121,20.1305183 111.280707,19.8426145 111.713876,19.3411892 C111.91077,19.1145415 112.00353,18.8572657 111.980777,18.5982397 C111.974652,18.5229822 111.945774,18.4284727 111.895019,18.3173365 C111.416346,17.3722418 110.089713,16.1497442 107.724351,14.4739512 C107.643843,14.4179456 107.56771,14.3601898 107.495078,14.3041842 C106.033681,13.265455 106.07481,12.3982431 106.087937,12.1138396 L106.089687,12.0814613 C106.091437,12.0622094 106.092312,12.0525834 106.094937,12.0420824 C106.088812,11.6745455 106.200823,11.440022 106.205198,11.4312711 L106.2227,11.3945174 C106.800258,9.47107459 109.009855,8.90401773 110.284857,8.73687598 C110.753904,8.67561983 111.124942,8.66161843 111.315711,8.65899317 L111.387468,8.65461773 C111.597489,8.64674194 111.80751,8.6423665 112.014031,8.6423665 C113.064136,8.6423665 113.85259,8.7491272 114.207876,8.84101142 C114.412646,8.89351668 114.598165,8.9206444 114.759181,8.9206444 C115.261481,8.9206444 115.447,8.66336861 115.610641,8.43584579 L115.638644,8.39734193 C115.762032,8.21794895 116.04206,8.00180228 116.399095,8.03505561 L116.44985,8.03943105 C116.84014,8.06655877 117.044035,8.24857702 117.003781,9.13416581 C116.976653,9.75197775 116.807761,11.6614192 116.771008,12.0394571 C116.738629,12.3833666 116.651996,12.607389 116.517232,12.7036487 C116.441975,12.7579041 116.269582,12.8532887 116.023683,12.8296613 C115.670147,12.7955329 115.386619,12.3037336 115.332363,12.1890971 L115.329738,12.1899722 C115.138969,11.678921 114.373267,11.0821111 112.842739,11.0821111 L112.749104,11.0829862 C111.966776,11.100488 111.693749,11.2370016 111.601864,11.3490129 C111.546734,11.4155195 111.549359,11.4820262 111.560735,11.5774108 L111.562485,11.5949125 C111.587863,11.8311862 112.026282,12.1243406 112.378942,12.3597392 C112.512831,12.4498732 112.638843,12.5338817 112.75173,12.6187652 C113.518307,13.1928227 114.122992,13.6277413 114.608666,13.9769014 C115.146845,14.362815 115.537134,14.6428431 115.860916,14.9071196 C116.380719,15.3306621 117.327563,16.1016144 117.360817,17.7581555 L117.360817,17.7581555 Z M69.876806,15.7375779 C69.8934327,15.3717912 69.9441877,15.0375077 70.0299463,14.7154754 L70.0395723,14.6743463 C70.1498334,14.2744312 70.3178502,13.903394 70.5541239,13.5358571 C72.0452734,10.9858515 74.8796826,10.831836 74.9173114,10.8300858 C75.1614608,10.8029581 75.3933591,10.7880816 75.6068805,10.7880816 C77.007896,10.7880816 77.377183,11.3883918 77.4725676,11.6622943 C77.4786932,11.7349266 77.4813184,11.8049336 77.4830686,11.8653146 C77.4900693,12.1339666 77.19779,14.721601 76.9947696,15.8224614 C76.9142616,16.2591302 76.7234924,17.0957141 76.3568307,17.7905337 C76.2194419,18.0408088 76.0698019,18.2499548 75.911411,18.4100958 C75.003945,19.3368137 74.3511296,19.6807232 73.2240166,19.8268629 C73.0936285,19.8426145 72.9527394,19.8601162 72.789098,19.8601162 C72.230792,19.8601162 71.7013639,19.6570959 71.1684355,19.2414292 C70.4876172,18.7093758 69.7910474,17.5096306 69.876806,15.7375779 L69.876806,15.7375779 Z M83.1632631,18.5466095 C83.0705038,18.521232 82.9812449,18.5098558 82.8902357,18.5098558 L82.8604828,18.5098558 C82.5612028,18.5098558 82.3363052,18.6498699 82.1385354,18.7732572 C81.9582673,18.8852685 81.8033768,18.9824032 81.606482,18.9824032 C81.5688533,18.979778 81.5399754,18.9640264 81.5137227,18.930773 C81.2826996,18.6437443 81.4524666,17.5647611 81.5172231,17.1587204 L81.5338497,17.0467091 C81.6301094,16.4446488 81.7351199,15.7323274 81.8637578,14.8082347 C81.9390154,14.3356873 82.0133978,13.8683905 82.0816547,13.4290964 C82.2592975,12.2888571 82.6915908,9.98125074 82.9549922,8.77187949 C83.6655635,5.49555099 84.4811452,3.33233411 84.8749347,2.29272987 C85.0622035,1.79568004 85.1217095,1.63291372 85.1190842,1.53927933 C85.1147088,1.37476284 85.1015825,0.875962826 84.6789151,0.647564926 C84.6054077,0.608185978 84.5178989,0.58805896 84.419014,0.58805896 C83.9333403,0.58805896 83.1973915,1.07460774 82.8009768,1.36426178 C79.671663,3.65786674 78.4132869,7.66051806 77.9687423,9.15779318 C77.925863,9.13854125 77.8786083,9.11403879 77.8313535,9.08953633 C77.7779732,9.06240862 77.7237177,9.03353072 77.666837,9.00815318 C76.4084609,8.44109632 74.7265422,8.3352107 74.6600356,8.33083527 C74.6495345,8.32996018 74.4185113,8.30983316 74.026472,8.30983316 L73.9809675,8.30983316 C73.6720615,8.31070825 73.3526545,8.32295948 73.0323724,8.34746193 C71.4090846,8.45597281 70.2915976,8.83051036 69.987067,8.94339668 C69.6457828,9.06940932 69.209114,9.23742616 68.8643295,9.41244371 C66.9855161,10.3111588 65.6230045,11.7077988 64.810048,13.5691105 C64.6394059,14.0189056 63.2252641,18.0390586 66.3983322,20.6240678 C66.4569631,20.6713225 66.5138438,20.7194524 66.5724747,20.7640818 L66.645107,20.8165871 C66.7413666,20.8883443 66.8376263,20.9566012 66.9338859,21.0187324 L67.0283954,21.0799885 C67.0695245,21.1053661 67.1106536,21.1298685 67.1491575,21.1526208 C67.5289456,21.3862692 67.9201098,21.583164 68.3419021,21.7581815 L68.3672796,21.7678075 L68.3681547,21.7678075 C68.7068137,21.9078215 69.2257407,22.0574615 69.8304263,22.1895998 C70.2399674,22.2788587 71.1246811,22.351491 71.4843422,22.351491 L71.4992187,22.351491 C71.5307218,22.351491 71.5595997,22.3506159 71.582352,22.3506159 C73.6388082,22.2858594 74.9724419,21.7914349 75.7705219,21.3425148 L75.7705219,21.3495155 L75.981418,21.2173773 C76.4565907,20.9207226 76.759371,20.6284432 76.9335135,20.4289232 C76.9711423,20.5085562 76.9991451,20.5610615 77.0201472,20.5969401 L77.018397,20.5978152 C77.287049,21.0668622 78.215517,21.9638271 79.8125522,21.9970805 C80.0470757,22.0040812 80.2973508,21.9909549 80.5458757,21.9594517 C81.4629676,21.843065 83.0757543,21.403771 83.5754294,19.7638566 C83.641061,19.548585 83.7268196,19.1425443 83.5631782,18.8467646 C83.4782947,18.6962495 83.3444063,18.5947393 83.1632631,18.5466095 L83.1632631,18.5466095 Z M23.4499011,5.05188151 L20.6784983,21.065112 L20.6776232,21.065112 C20.6609965,21.174498 20.5726127,21.6750482 20.5717376,21.6802987 C20.4912295,22.0950903 20.0554358,22.3733682 19.6992751,22.3733682 L19.6651467,22.3742433 C18.7891838,22.3742433 17.7915838,21.065112 17.7495796,21.0091064 L17.6454442,20.8603415 C16.5585852,19.4663267 10.5231051,10.1440171 9.36361381,8.3500872 L7.67906992,18.182573 C7.67469448,18.2035751 7.35703763,19.6728474 8.1796201,20.0298832 C9.46074855,20.5873141 9.4502475,21.0467352 9.33911136,21.4343991 C9.28835627,21.6146671 9.16584399,21.863192 8.70204748,21.9358243 C8.67054433,21.942825 8.62678994,21.9498257 8.58478573,21.952451 C8.5725345,21.9542012 8.56290853,21.9550763 8.55328257,21.9550763 L8.51915415,21.9533261 C8.40714292,21.9533261 8.28550572,21.9375745 8.15511765,21.9191977 C8.04398151,21.9043212 7.92759484,21.8885696 7.80770782,21.8815689 L7.71319834,21.8745682 C7.40341728,21.8518159 6.46182288,21.7800587 5.08355969,21.7800587 C4.1480909,21.7800587 3.18111895,21.8596917 2.54142981,21.912197 C2.24565015,21.9375745 2.01025155,21.9568264 1.85623611,21.962077 L1.835234,21.9682026 C1.835234,21.9682026 1.77660313,21.9778285 1.68734418,21.9778285 C1.51757716,21.9778285 1.20167048,21.942825 0.989899249,21.7100517 C0.826257842,21.5306587 0.758876086,21.274258 0.789504157,20.9496004 C0.833258544,20.486679 1.41606698,20.3440397 1.97962348,20.206651 L2.03212875,20.1943997 C3.20474631,19.9064959 3.6055365,18.5334832 3.72367334,17.9568004 C3.72717369,17.9419239 3.72979896,17.9296727 3.73154913,17.9200467 C3.95994703,16.5881632 4.4902502,13.3205855 4.95754705,10.4362964 C5.39334075,7.7506521 5.76962847,5.4307945 5.86326286,4.90574186 C6.02515409,4.00527658 5.75300181,3.34808569 5.03192951,2.8974155 L5.00567688,2.88603936 C4.66526775,2.72677339 4.50950213,2.65326602 4.19184528,2.44412005 C3.98182423,2.30585619 3.75605159,1.96107162 3.77005299,1.68979442 C3.78492948,1.39926529 3.99145019,1.15161546 4.26622774,1.07723301 L4.26622774,1.07460774 L4.30735686,1.06673195 C4.31960809,1.06498178 4.33185932,1.06235651 4.34411055,1.06060634 L4.36073722,1.05798108 C4.37036318,1.0562309 4.59963617,1.01860213 4.98204951,0.980973354 L4.9899253,0.980098267 L4.996926,0.979223179 L5.00217653,0.979223179 L5.00305162,0.977473003 L5.02142846,0.976597916 C5.51147759,0.929343178 6.01815339,0.904840721 6.52132884,0.904840721 C6.68234499,0.904840721 6.84773657,0.907465984 7.01925376,0.913591599 C7.16014289,0.914466686 7.2949064,0.917091949 7.41391833,0.9205923 L7.47254921,0.919717213 C7.62481448,0.919717213 7.87158922,0.92846809 8.18749589,0.972222477 C8.3301352,0.988849144 8.39664186,1.00372564 8.39664186,1.00372564 L8.39664186,1.00372564 C10.6508679,1.36513687 12.6976981,3.26757761 15.0315571,7.16959384 C15.8856427,8.59598685 16.9418736,10.2997827 17.7907087,11.6675448 C18.092614,12.1540936 18.362141,12.5890122 18.5782877,12.9399224 L19.9250477,4.92674397 C19.927673,4.91274256 20.1578211,3.2474506 19.009706,2.77927866 C18.3525151,2.51150181 17.9779775,2.07395794 18.0313579,1.63816425 C18.0917389,1.13411371 18.4829031,0.866336861 19.0517102,0.946844933 L19.0858386,0.954720722 C19.1532203,0.960846336 19.2241024,0.970472301 19.2976098,0.980098267 C19.409621,0.994974758 19.5251326,1.01072634 19.6458947,1.01685195 L19.7369039,1.02385265 C20.0466849,1.04748002 20.9865292,1.1201123 22.370918,1.1201123 C23.3055117,1.1201123 24.2733587,1.03960423 24.914798,0.986223881 C25.2762092,0.956470898 25.5378605,0.934593704 25.683125,0.934593704 C25.7365054,0.934593704 25.7732591,0.937218967 25.8047622,0.944219669 L25.8082626,0.944219669 C26.0664135,0.944219669 26.2895608,1.0991102 26.38057,1.33538389 L26.3901959,1.34063441 L26.4146984,1.4132667 C26.5372107,2.08270882 26.0655384,2.55875655 25.0136829,2.82828357 C23.6949257,3.16431726 23.4726534,4.95474677 23.4700282,4.97312362 L23.4621524,5.04488081 L23.4499011,5.05188151 Z M62.8901055,14.5877126 C62.8892304,14.6253414 62.8892304,14.6533442 62.8901055,14.6725961 C62.9023567,15.0838873 62.7439658,16.9145709 61.748116,18.3698418 C60.6218781,20.0167569 59.1482303,21.0196075 58.1112513,21.5717878 C58.0044906,21.6269184 57.898605,21.6855492 57.7918443,21.743305 C57.139904,22.0977156 56.4660864,22.4643773 55.6470043,22.6166426 C55.5979994,22.6262686 55.5402436,22.6280187 55.5008646,22.6280187 C55.454485,22.6280187 55.2978443,22.6245184 55.1945839,22.5825142 L55.1709565,22.5728882 C55.0143158,22.510757 54.8007944,22.4241233 54.7920436,22.1003408 C54.7894183,22.0268335 54.8235467,21.9200728 54.9976892,21.613792 C55.4859881,20.9601015 57.0795229,18.6043653 57.4951896,15.1880228 C57.7279629,13.2864571 57.5205671,11.9668248 56.8791278,11.2667546 C56.4678366,10.8169595 55.8649011,10.5990627 55.0379432,10.5990627 C54.9294323,10.5990627 54.8182962,10.6016879 54.706285,10.6086886 C52.5150653,10.7460774 51.4920877,12.816535 51.2575642,13.8920178 C51.0335417,15.1486438 50.7255108,16.9390733 50.5111143,18.2412039 C50.468235,18.6542453 50.4428575,19.658846 51.1481782,19.908246 C51.8254961,20.1488952 52.1562793,20.5768131 52.0556442,21.0826138 C51.9786365,21.4720278 51.704734,21.7039261 51.3048189,21.7188026 C50.7456379,21.7389296 50.198708,21.7100517 49.6754056,21.6820489 C49.3577487,21.6654222 49.0567185,21.6496706 48.762689,21.6452952 C48.2000076,21.6365443 47.6259501,21.6312938 47.0580181,21.6312938 C46.7867409,21.6312938 46.5347157,21.633044 46.3054427,21.6339191 C46.2240595,21.6365443 46.1426764,21.6374194 46.0700441,21.6374194 C45.9344055,21.6374194 45.8337704,21.6400447 45.7340104,21.6426699 C45.6316251,21.6452952 45.5301149,21.6479205 45.390976,21.6479205 C45.3279697,21.6479205 45.2378356,21.6514208 45.1275746,21.6557963 C44.8737991,21.6680475 44.5255142,21.6837991 44.1886054,21.6654222 C43.8018167,21.6540461 43.6302995,21.613792 43.5130377,21.5079064 C43.316143,21.3582664 43.3012665,21.0834889 43.3038917,20.9723527 C43.3117675,20.6940748 43.4080272,20.446425 43.5821696,20.2556559 C43.775564,20.0456348 44.0170882,19.9817534 44.2498616,19.9204973 C44.6804047,19.808486 45.1249493,19.6920994 45.4023521,18.5754874 C45.570369,17.5787625 45.7943914,16.1628705 46.0105381,14.7933582 C46.2179339,13.4833519 46.4130785,12.2459778 46.5329655,11.5590339 C46.5338406,11.5275308 46.5390911,11.4925273 46.5452167,11.4540234 C46.5522174,11.410269 46.5635936,11.3358866 46.547842,11.3183848 C46.5347157,11.3026332 46.4498322,11.2772557 46.2844406,11.2930073 C46.1881809,11.2973827 44.9193037,11.3612641 44.6769044,10.6646943 C44.374124,9.79398196 44.9831851,9.58046056 45.2763395,9.47632512 L45.3489718,9.45094757 C45.6613781,9.33193564 48.8501978,8.4209693 49.4811361,8.36846404 C49.5581438,8.36146334 49.6351515,8.35096228 49.7104091,8.34046123 C49.8302961,8.32470965 49.9536835,8.3072079 50.0700701,8.3072079 C50.2564638,8.3072079 50.4017284,8.35183737 50.5137396,8.44459667 C50.9932877,8.83663598 50.9722856,9.43082055 50.9530337,9.91036863 C51.7791165,9.1350409 53.0864976,8.28358053 54.9268071,8.1356907 L54.9268071,8.13744088 C55.0510695,8.10681281 55.3030948,8.09018614 55.8158962,8.09018614 C55.8622759,8.09018614 55.9069053,8.09106123 55.9489095,8.09193631 C56.5693468,8.11206333 57.1416541,8.19082123 57.3026703,8.21357351 C59.1491054,8.46822404 60.4529861,9.17091949 61.5345946,10.492302 C62.1690332,11.2676297 62.9189834,12.607389 62.8901055,14.5877126 L62.8901055,14.5877126 Z M36.3784474,11.8443125 C36.384573,12.108589 36.095794,14.6524691 35.8953989,15.7367028 C35.7938888,16.2845077 35.4841077,17.6356432 34.7980389,18.3365885 C33.9019491,19.2545555 33.2578845,19.5949646 32.145648,19.7393541 C32.0170101,19.7551057 31.8778711,19.7726074 31.7159799,19.7726074 C31.1664248,19.7726074 30.6431223,19.5713373 30.1180697,19.160046 C29.4460023,18.6323681 28.7581834,17.443999 28.8421918,15.688573 C28.8596935,15.3262866 28.9086984,14.9946284 28.993582,14.6769715 L29.004083,14.6358424 C29.1125939,14.2411778 29.2779855,13.873641 29.5116339,13.5087294 C30.9835315,10.9823511 33.7794368,10.8300858 33.8170656,10.8283357 C34.0577147,10.801208 34.2869877,10.7863315 34.4978838,10.7863315 C36.3294425,10.7863315 36.3766972,11.8014332 36.3784474,11.8443125 L36.3784474,11.8443125 Z M41.9571317,18.471352 C41.8652475,18.4459744 41.7733633,18.4345983 41.6858545,18.4345983 C41.3900749,18.4345983 41.1678026,18.5737372 40.972658,18.6962495 C40.7950152,18.8073857 40.6427499,18.9045204 40.4528559,18.9045204 L40.4213527,18.9036453 C40.3828489,18.9010201 40.3557211,18.8861436 40.3294685,18.8537653 C40.1010706,18.571112 40.2682124,17.4991295 40.3320938,17.0957141 L40.3487204,16.985453 C40.514112,15.9502242 40.6821289,14.7259765 40.8221429,13.6889975 L40.8282685,13.6951231 L40.9052762,13.1280662 C40.9901598,12.5137547 41.1485506,11.3682648 41.1538012,11.0952374 C41.1678026,10.213149 40.9577815,10.013629 40.7127569,9.78173074 L40.6480004,9.71959951 C40.2699625,9.34943739 39.7597864,8.89876721 38.8426944,8.36496369 C38.6134215,8.23107526 38.2537604,8.02717982 37.950105,8.06743386 C37.7033302,8.10243737 37.4513049,8.35271246 37.3112909,8.58636089 C37.2596607,8.67211948 37.1809028,8.86726405 37.0907688,9.09566195 L37.0715169,9.14291669 C37.0487646,9.16566897 37.0260123,9.18317072 37.0015098,9.20067248 C36.9437541,9.24092651 36.8212418,9.17091949 36.6969793,9.106163 C36.643599,9.07728511 36.5884684,9.04840721 36.5315877,9.02302967 C35.2898382,8.46034825 33.6289217,8.35533772 33.562415,8.35183737 C33.5536642,8.35096228 33.3252663,8.33171035 32.9367273,8.33171035 C32.6278213,8.33171035 32.3075392,8.34308649 31.9855069,8.36846404 C30.3814711,8.47609983 29.2788606,8.84713703 28.9795806,8.95914826 C28.6435469,9.08253563 28.2130037,9.2488023 27.8699693,9.42381985 C26.0165335,10.312909 24.6706485,11.6964227 23.8690682,13.5419827 C23.6993011,13.9874024 22.3044113,17.9673014 25.4363503,20.5295583 C25.493231,20.5768131 25.5509868,20.6240678 25.6087426,20.6686973 L25.6796247,20.7212025 C25.7750093,20.7920847 25.8695187,20.8585913 25.9640282,20.9198475 L26.0585377,20.9819787 C26.0996668,21.0073562 26.1390458,21.0309836 26.1766745,21.0537359 C26.5529623,21.2847591 26.9380009,21.4799036 27.3554177,21.653171 L27.5943167,21.7371794 L27.5890661,21.7153022 C28.1123686,21.9086966 28.5131588,22.0058313 28.7424318,22.0609619 L28.8185644,22.0793387 C29.2499827,22.1948503 30.1504479,22.2412299 30.4541034,22.2412299 C30.4812311,22.2412299 30.5057336,22.2403549 30.5258606,22.2403549 C32.554314,22.1764735 33.8704459,21.6864243 34.6589,21.2427548 L34.6589,21.2480054 L34.868921,21.1176173 C35.3449688,20.8183373 35.646874,20.5243078 35.816641,20.3274131 L35.8350179,20.3711675 L35.8446439,20.356291 C35.8770221,20.4236727 35.9006495,20.4709275 35.9207765,20.5033057 L35.9190263,20.5041808 C36.1920537,20.984604 37.1388986,21.8920699 38.7700622,21.8920699 L38.7700622,21.8920699 C38.9660818,21.8920699 39.1691022,21.8789436 39.3738727,21.8535661 C40.2787134,21.7380545 41.870498,21.3022608 42.3640475,19.678098 C42.428804,19.4637015 42.5136875,19.0611611 42.3509212,18.7688818 C42.2686629,18.6201169 42.1356496,18.5194818 41.9571317,18.471352 L41.9571317,18.471352 Z" id="Fill-1" fill="#CE0924" mask="url(#mask-2)"></path>
                </g>
                <path d="M27.7348558,13.1243909 C27.3568178,13.6984484 26.7162536,14.2856323 26.2725841,14.6584197 C26.2568326,13.4525488 26.0406859,12.5564589 25.7247792,11.888767 C26.8763947,12.3140596 27.7348558,13.1243909 27.7348558,13.1243909 M25.8052873,24.6895504 C25.8630431,23.5239336 26.0030571,20.7866591 26.1421961,18.601565 C26.3942213,18.9270977 26.7853856,19.229878 27.3296901,19.1082408 C27.5983421,19.0487349 28.216154,18.880718 28.2704094,17.9916289 C28.3019126,17.4709517 27.9133737,16.8102604 26.8641435,15.7041495 C26.8037624,15.6402681 26.7188789,15.5685109 26.6208691,15.4976288 C27.2220543,14.9384478 28.1723996,13.983727 28.6388214,13.1436428 L28.7560831,12.9336218 L28.5740649,12.776106 C27.6132186,11.948273 26.2559575,11.1965726 25.632895,10.8701649 C25.3353652,10.7012729 25.0772143,10.5691347 24.8566922,10.4641242 C24.895196,10.4334961 24.934575,10.4037431 24.9730789,10.3704898 C25.5523869,9.78593116 27.9632537,7.05040689 26.4423512,3.36541242 C24.9433259,-0.269702041 21.1489454,-0.248699935 19.1388689,0.216846741 C18.4064205,0.411991307 17.723852,0.781278333 17.4096955,0.965921845 C16.1040646,1.82875835 15.0898379,3.1457654 14.7783067,4.70779701 C14.4387727,6.4072174 14.9673257,8.29653183 16.2432036,9.49627712 C16.496979,9.73430098 16.5941138,9.79905747 16.6422436,9.76667923 C16.6116155,9.78768133 16.6912485,9.45252273 17.2425538,8.95372272 C17.4088204,8.80408271 18.3792927,7.95349743 19.7251777,8.40591779 C20.4821286,8.66056833 20.8286633,9.05698307 21.0771882,9.59866238 C21.1988254,9.86206379 21.2618318,10.1963473 21.253956,10.4991277 C21.2312037,10.5113789 21.2084514,10.5218799 21.1874493,10.5350063 C20.1837237,11.1414421 19.130118,12.5634596 19.3786429,15.8817923 C19.6674219,19.7348037 19.9562008,22.8947455 20.127718,24.6842999 C19.529158,24.7018017 18.980478,24.7560571 18.4781777,24.8418157 C19.2946345,21.3528409 19.1152415,17.3029348 15.26048,14.8990688 C11.5912372,12.6107144 6.42296898,13.344913 3.17289312,16.0944387 C-0.0885588791,18.8527152 -0.83500872,23.6166929 0.930918336,27.4268249 C1.08668395,27.7646087 1.26082641,28.0936417 1.44984536,28.4147989 C2.01252678,29.363394 2.72834855,30.2166046 3.61043699,30.8825463 C4.50740192,31.5598643 5.54000545,32.0271611 6.60761249,32.3605695 C7.27180409,32.5688404 7.95087217,32.7281064 8.63344061,32.8611197 C8.72007429,32.8768713 8.78483078,32.7849871 8.7410764,32.7088545 C8.69644692,32.6300966 8.65881815,32.5522137 8.64219148,32.5233359 C8.44617183,32.1794264 8.31228341,31.8013885 8.24315147,31.4119744 C7.99462656,30.0170846 8.44529674,28.3885463 9.604788,27.5099582 C10.6995228,26.6821252 12.2615544,26.6786249 13.3632898,27.5003322 C13.5514337,27.6412214 13.7229509,27.8039877 13.8717158,27.986881 C13.2197754,29.3878965 13.2416526,30.9236755 13.4254211,31.9221506 C13.5523088,32.6134699 13.6923228,32.854119 13.7798316,33.123646 C14.3748913,34.9552047 15.9789271,36.8882735 16.5381081,37.60147 C17.3790675,38.6717023 19.7803082,41.1788287 20.6632717,42.0941704 L20.6632717,45.8237944 C20.3552409,46.0101881 18.2839082,47.315819 17.4018197,49.2226352 C17.3090604,49.4230303 17.4867033,49.6418022 17.713351,49.6076738 C19.2745075,49.3740253 21.2460802,49.2392618 23.138895,49.2348864 C25.0404606,49.2366366 26.8247645,49.3722752 28.3736698,49.6067987 C28.6003175,49.6418022 28.7762102,49.4230303 28.6834509,49.2226352 C27.7996122,47.3114435 25.7239041,46.0040625 25.4228739,45.8220442 L25.4228739,42.1090469 C26.2340803,41.2094567 28.4891814,38.6874539 29.2802607,37.60147 C29.8131891,36.8690216 31.9632797,34.1098699 32.3614446,31.9221506 C32.7604846,29.7274305 32.3876973,24.9485764 25.8052873,24.6895504" id="Fill-4" fill="#000000"></path>
                <path d="M22.2689702,9.94370948 L22.2715955,9.98746386 C22.2750958,10.0399691 22.2777211,10.0819733 22.2829716,10.1161018 L22.2873471,10.1423544 C22.2890972,10.1441046 22.2917225,10.1467298 22.2943478,10.14848 C22.8587794,10.0425944 23.4223359,10.0574709 23.8738811,10.1344786 L23.8747562,10.1327284 C24.8566047,9.35039999 25.5601752,8.13052768 25.8087001,6.7303873 C26.0878531,5.16310516 25.7290671,3.68420689 24.8259766,2.67260546 C23.8660054,1.59712263 22.6111295,1.05194297 21.0981028,1.05194297 C21.0245955,1.05194297 20.9563386,1.05369315 20.8933323,1.05544332 C19.4354361,1.08957174 18.5349709,1.41510438 17.4542375,2.29631773 C17.0298199,2.64285248 16.0287196,3.61595004 15.8887055,5.15872972 C15.8116978,6.00406448 15.9105827,6.62012625 16.0077175,6.9876631 C16.0252192,7.05329468 16.0400957,7.11455082 16.0549722,7.17230661 C16.1398557,7.515341 16.1967364,7.7437389 16.551147,8.25216488 C16.5555224,8.24866453 16.5607729,8.24428909 16.5660234,8.23903856 C16.9939413,7.82862241 17.4866157,7.54684416 18.0291701,7.4015796 C18.4185842,7.29744416 18.8263751,7.24668907 19.2429168,7.25543994 C19.4223098,7.2589403 20.4855414,7.39807925 21.2249906,7.98963856 C22.2024636,8.77284208 22.246218,9.53416841 22.2689702,9.94370948 M25.4630405,28.8324783 C23.7277415,28.6749625 23.0084194,30.2229927 22.9856671,30.2728727 C22.9620397,30.2229927 22.2435927,28.6749625 20.5074186,28.8324783 C18.7423666,28.9917443 17.5574978,31.1479605 19.9517379,34.4916707 C22.266345,37.7251199 22.9419127,37.8773852 22.9839169,37.8843859 L22.9856671,37.8843859 L22.9865422,37.8843859 L22.9865422,37.8843859 C23.0285464,37.8773852 23.7049892,37.7251199 26.0195963,34.4916707 C28.4129612,31.1479605 27.2280924,28.9917443 25.4630405,28.8324783 M15.8256992,16.7002619 C14.7335897,15.6711587 13.2783188,15.0288443 11.8510507,14.7908205 C7.95340992,14.1371299 3.67860632,15.8444261 1.92580559,19.4751651 C0.439906606,22.5545989 1.07609539,26.8057751 3.48433685,29.2533955 C4.5869474,30.3770082 5.72193619,31.0123219 7.15095447,31.3203527 C7.18858324,31.3282285 6.9558099,30.3595064 7.19908429,29.3190271 C7.47386184,28.1420341 8.04266887,26.7497695 9.69745979,26.0995793 C12.2247132,25.1072298 13.6817343,26.3288523 14.5489462,26.9370383 C15.1011266,26.3192263 15.4984164,26.0750768 16.0820999,25.7661709 C16.5380206,25.5255217 16.831175,25.4266368 17.2634684,25.3295021 C17.7622684,24.2128901 17.9836656,22.0654248 17.7622684,20.8849315 C17.4804901,19.3894065 17.2748445,18.0662739 15.8256992,16.7002619 M27.4241121,17.6462317 C27.5439991,17.8798802 27.4661163,18.1607833 27.2499696,18.2719195 C27.0592005,18.3708044 26.8238019,18.3042977 26.6890384,18.1257798 L26.6872882,18.1266549 C26.6872882,18.1266549 26.6811626,18.1170289 26.6697865,18.0986521 C26.6601605,18.0829005 26.6496594,18.0671489 26.6409086,18.0496472 C26.6321577,18.0338956 26.625157,18.0163939 26.6190314,17.9997672 C26.5770272,17.9105082 26.5210216,17.7713693 26.4702665,17.5762247 C26.3950089,17.2909461 26.275997,16.6958865 26.2173661,16.3974815 C26.1954889,16.2880956 26.186738,16.2635931 26.2016145,16.2557173 C26.2191163,16.2469665 26.2313675,16.2688436 26.3083752,16.3467265 C26.5288973,16.571624 26.9760672,17.0284198 27.1318328,17.2244395 C27.263971,17.3933314 27.3427289,17.5105931 27.3899837,17.5902261 C27.4022349,17.6077279 27.413611,17.6261047 27.4241121,17.6462317" id="Fill-6" fill="#CE0924"></path>
                <path d="M25.7244292,11.8886795 C26.0403359,12.5563714 26.2564825,13.4533364 26.2722341,14.6583322 C26.7167787,14.2855448 27.3573429,13.6983609 27.7345057,13.1243034 C27.7345057,13.1243034 26.8760446,12.3139721 25.7244292,11.8886795 M23.7511063,13.2678178 C23.7511063,12.8976556 23.4518263,12.5975006 23.0816642,12.5975006 C22.7132523,12.5975006 22.4130972,12.8976556 22.4130972,13.2678178 C22.4130972,13.6379799 22.7132523,13.938135 23.0816642,13.938135 C23.4518263,13.938135 23.7511063,13.6379799 23.7511063,13.2678178 M24.5631878,13.2678178 C24.5631878,14.087775 23.9007463,14.7519666 23.0816642,14.7519666 C22.2643323,14.7519666 21.6010158,14.087775 21.6010158,13.2678178 C21.6010158,12.4478605 22.2643323,11.7827939 23.0816642,11.7827939 C23.9007463,11.7827939 24.5631878,12.4478605 24.5631878,13.2678178 M22.7132523,16.4295098 C22.8462656,16.1512319 23.1639225,16.0260943 23.4229484,16.1503568 C23.6522214,16.2597427 23.758107,16.5275196 23.6872249,16.781295 L23.6898502,16.7821701 C23.6898502,16.7821701 23.6854748,16.7944213 23.6758488,16.8171736 C23.6688481,16.8381757 23.6609723,16.8591778 23.6513463,16.8793049 C23.6417204,16.8985568 23.6312193,16.9178087 23.6198432,16.9353105 C23.5664628,17.0385708 23.4763288,17.1882108 23.3301891,17.3746045 C23.1166677,17.6467568 22.6458705,18.1788101 22.4087217,18.4448368 C22.3220881,18.5419716 22.3045863,18.5682242 22.2879596,18.5594733 C22.2669575,18.5480972 22.2783337,18.5218445 22.2967105,18.3940817 C22.3483407,18.0291701 22.4559765,17.2853456 22.5286088,17.0018171 C22.59074,16.7576677 22.6449954,16.601027 22.6852495,16.5012669 C22.6931253,16.4767645 22.7018761,16.4531371 22.7132523,16.4295098" id="Fill-8" fill="#FFFFFF"></path>
                <path d="M12.816885,16.4059699 C12.4125945,16.4059699 12.0835615,16.7350029 12.0835615,17.1401685 C12.0835615,17.544459 12.4125945,17.873492 12.816885,17.873492 C13.2220507,17.873492 13.5510837,17.544459 13.5510837,17.1401685 C13.5510837,16.7350029 13.2220507,16.4059699 12.816885,16.4059699" id="Fill-10" fill="#FFFFFF"></path>
                <path d="M14.8879552,19.7124014 C15.2931208,19.7124014 15.6221538,19.3833684 15.6221538,18.9790779 C15.6221538,18.5739123 15.2931208,18.2448793 14.8879552,18.2448793 C14.4836647,18.2448793 14.1537566,18.5739123 14.1537566,18.9790779 C14.1537566,19.3833684 14.4836647,19.7124014 14.8879552,19.7124014" id="Fill-12" fill="#FFFFFF"></path>
                <path d="M15.6130529,20.8417021 C15.2087624,20.8417021 14.8788543,21.1707351 14.8788543,21.5750257 C14.8788543,21.9801913 15.2087624,22.3092243 15.6130529,22.3092243 C16.0173434,22.3092243 16.3472515,21.9801913 16.3472515,21.5750257 C16.3472515,21.1707351 16.0173434,20.8417021 15.6130529,20.8417021" id="Fill-14" fill="#FFFFFF"></path>
                <path d="M5.16117997,27.6385961 C4.75688944,27.6385961 4.42698136,27.9676291 4.42698136,28.3727947 C4.42698136,28.7779603 4.75688944,29.1069933 5.16117997,29.1069933 C5.56634559,29.1069933 5.89537858,28.7779603 5.89537858,28.3727947 C5.89537858,27.9676291 5.56634559,27.6385961 5.16117997,27.6385961" id="Fill-16" fill="#FFFFFF"></path>
                <path d="M3.5866346,25.4906057 C3.18234407,25.4906057 2.85243599,25.8196387 2.85243599,26.2239293 C2.85243599,26.6290949 3.18234407,26.9581279 3.5866346,26.9581279 C3.99180023,26.9581279 4.32083322,26.6290949 4.32083322,26.2239293 C4.32083322,25.8196387 3.99180023,25.4906057 3.5866346,25.4906057" id="Fill-18" fill="#FFFFFF"></path>
                <path d="M3.70407138,23.6439081 C3.70407138,23.2396176 3.37503839,22.9097095 2.96987277,22.9097095 C2.56558223,22.9097095 2.23567415,23.2396176 2.23567415,23.6439081 C2.23567415,24.0481986 2.56558223,24.3781067 2.96987277,24.3781067 C3.37503839,24.3781067 3.70407138,24.0481986 3.70407138,23.6439081" id="Fill-20" fill="#FFFFFF"></path>
                <path d="M3.32043291,21.7146897 C3.72559854,21.7146897 4.05463153,21.3856567 4.05463153,20.980491 C4.05463153,20.5753254 3.72559854,20.2462924 3.32043291,20.2462924 C2.91614238,20.2462924 2.5862343,20.5753254 2.5862343,20.980491 C2.5862343,21.3856567 2.91614238,21.7146897 3.32043291,21.7146897" id="Fill-22" fill="#FFFFFF"></path>
                <path d="M4.73816256,19.39877 C5.14245309,19.39877 5.47236117,19.069737 5.47236117,18.6645713 C5.47236117,18.2602808 5.14245309,17.9303727 4.73816256,17.9303727 C4.33387202,17.9303727 4.00396395,18.2602808 4.00396395,18.6645713 C4.00396395,19.069737 4.33387202,19.39877 4.73816256,19.39877" id="Fill-24" fill="#FFFFFF"></path>
                <path d="M7.13607798,16.3739417 C6.73091235,16.3739417 6.40187937,16.7029747 6.40187937,17.1081403 C6.40187937,17.5124308 6.73091235,17.8423389 7.13607798,17.8423389 C7.54036851,17.8423389 7.87027659,17.5124308 7.87027659,17.1081403 C7.87027659,16.7029747 7.54036851,16.3739417 7.13607798,16.3739417" id="Fill-26" fill="#FFFFFF"></path>
                <path d="M9.9968273,15.8206237 C9.59253677,15.8206237 9.26350378,16.1496567 9.26350378,16.5548223 C9.26350378,16.9591129 9.59253677,17.2890209 9.9968273,17.2890209 C10.4019929,17.2890209 10.7310259,16.9591129 10.7310259,16.5548223 C10.7310259,16.1496567 10.4019929,15.8206237 9.9968273,15.8206237" id="Fill-28" fill="#FFFFFF"></path>
                <path d="M15.0935133,23.43835 C14.6892228,23.43835 14.3593147,23.767383 14.3593147,24.1725486 C14.3593147,24.5777142 14.6892228,24.9067472 15.0935133,24.9067472 C15.4986789,24.9067472 15.8277119,24.5777142 15.8277119,24.1725486 C15.8277119,23.767383 15.4986789,23.43835 15.0935133,23.43835" id="Fill-30" fill="#FFFFFF"></path>
            </g>
        </g>
    </g>
</svg>